HIERARCHY
ROOT Hips
{
  OFFSET -125.086 92.215 135.881
  CHANNELS 6 Xposition Yposition Zposition Zrotation Xrotation Yrotation
  JOINT LeftUpLeg
  {
    OFFSET 8.64259 1.95398 -2.38835
    CHANNELS 3 Zrotation Xrotation Yrotation
    JOINT LeftLeg
    {
      OFFSET 43.7702 0 0
      CHANNELS 3 Zrotation Xrotation Yrotation
      JOINT LeftFoot
      {
        OFFSET 40.6238 0 0
        CHANNELS 3 Zrotation Xrotation Yrotation
        JOINT LeftToeBase
        {
          OFFSET 12.7242 0 0
          CHANNELS 3 Zrotation Xrotation Yrotation
          End Site
          {
            OFFSET 0 0 0
          }
        }
      }
    }
  }
  JOINT RightUpLeg
  {
    OFFSET -8.2249 1.95398 -2.59336
    CHANNELS 3 Zrotation Xrotation Yrotation
    JOINT RightLeg
    {
      OFFSET 43.5653 0 0
      CHANNELS 3 Zrotation Xrotation Yrotation
      JOINT RightFoot
      {
        OFFSET 40.6238 0 0
        CHANNELS 3 Zrotation Xrotation Yrotation
        JOINT RightToeBase
        {
          OFFSET 12.7242 0 0
          CHANNELS 3 Zrotation Xrotation Yrotation
          End Site
          {
            OFFSET 0 0 0
          }
        }
      }
    }
  }
  JOINT Spine
  {
    OFFSET 0.165834 0.87714 6.61349
    CHANNELS 3 Zrotation Xrotation Yrotation
    JOINT Spine1
    {
      OFFSET 7.38963 1.71661e-005 0
      CHANNELS 3 Zrotation Xrotation Yrotation
      JOINT Spine2
      {
        OFFSET 11.9445 1.14441e-005 0
        CHANNELS 3 Zrotation Xrotation Yrotation
        JOINT Spine3
        {
          OFFSET 14.7254 4.19617e-005 0
          CHANNELS 3 Zrotation Xrotation Yrotation
          JOINT Spine4
          {
            OFFSET 10.9679 0 0
            CHANNELS 3 Zrotation Xrotation Yrotation
            JOINT RightShoulder
            {
              OFFSET 2.46616 -1.6653 3.69651
              CHANNELS 3 Zrotation Xrotation Yrotation
              JOINT RightArm
              {
                OFFSET 13.0012 0 0
                CHANNELS 3 Zrotation Xrotation Yrotation
                JOINT RightForeArm
                {
                  OFFSET 28.7848 1.52588e-005 0
                  CHANNELS 3 Zrotation Xrotation Yrotation
                  JOINT RightHand
                  {
                    OFFSET 26.5688 1.52588e-005 0
                    CHANNELS 3 Zrotation Xrotation Yrotation
                    End Site
                    {
                      OFFSET 0 0 0
                    }
                  }
                }
              }
            }
            JOINT LeftShoulder
            {
              OFFSET 2.38034 -1.29275 -3.7523
              CHANNELS 3 Zrotation Xrotation Yrotation
              JOINT LeftArm
              {
                OFFSET 16.3182 6.10352e-005 0
                CHANNELS 3 Zrotation Xrotation Yrotation
                JOINT LeftForeArm
                {
                  OFFSET 27.0901 0 0
                  CHANNELS 3 Zrotation Xrotation Yrotation
                  JOINT LeftHand
                  {
                    OFFSET 24.5451 1.52588e-005 0
                    CHANNELS 3 Zrotation Xrotation Yrotation
                    End Site
                    {
                      OFFSET 0 0 0
                    }
                  }
                }
              }
            }
            JOINT Neck
            {
              OFFSET 5.0226 -0.0266342 0
              CHANNELS 3 Zrotation Xrotation Yrotation
              JOINT Head
              {
                OFFSET 6.69363 2.86102e-005 0
                CHANNELS 3 Zrotation Xrotation Yrotation
                End Site
                {
                  OFFSET 0 0 0
                }
              }
            }
          }
        }
      }
    }
  }
}
MOTION
Frames:	15
Frame Time:	0.0416667
-303.124 69.843 293.864 100.202 39.0583 109.173 -168.419 -7.51881 105.597 -69.7162 -40.3149 4.47545 114.947 -24.8892 -35.0833 20.5998 1.34321 -3.32037 158.567 -50.9785 34.3729 -43.7598 6.43101 71.2163 13.2763 46.0727 40.949 -71.6185 -37.9197 43.047 0.887035 4.28528 -92.5597 18.2843 0.398598 -5.27534 6.6027 0.166386 -5.28774 -15.8559 1.96374 -4.91332 4.15678 1.96376 -4.91334 123.261 -20.4359 -33.3436 64.2924 -64.8556 73.8147 -37.5497 13.6078 -73.9277 -29.8678 -27.284 80.7111 -49.7761 -46.9974 139.894 -21.9076 29.6602 13.0753 12.6462 13.0657 -80.8364 29.1766 -11.3245 -42.7668 -83.3697 -15.5157 2.37656 19.6723 -19.8931 -19.2724 
-303.608 69.5287 294.554 99.8106 38.9074 109.022 -168.884 -7.27286 104.425 -70.3255 -41.1714 4.86224 115.041 -25.5684 -34.9932 21.0934 1.25133 -3.13959 167.702 -39.3608 47.188 -47.8857 -7.72392 51.6199 34.792 58.3495 34.7084 -61.4201 -39.9675 52.7263 0.910626 4.25716 -92.5427 18.3422 0.452382 -5.25238 6.66067 0.221121 -5.26715 -15.7992 2.00819 -4.8753 4.2135 2.00818 -4.8753 123.361 -20.4707 -33.1637 63.4056 -64.8023 73.5427 -37.1901 14.9199 -74.7055 -25.8211 -23.8542 81.6159 -49.3575 -48.2677 139.904 -21.0586 30.1687 14.5221 11.977 11.9751 -81.4851 29.3165 -11.4372 -42.959 -83.3716 -15.3229 2.53953 19.3796 -19.7182 -19.9514 
-308.804 64.3101 300.524 98.6725 38.4358 108.542 -171.443 2.44638 102.656 -85.5866 -44.451 6.08513 120.697 -30.4327 -31.7623 22.4005 1.03182 -2.75113 171.285 -17.6714 81.7709 -88.0223 14.0995 -0.581842 -90.4113 45.5291 157.611 39.2433 -68.7616 175.124 0.984298 4.17603 -92.4911 18.5094 0.619872 -5.18392 6.82821 0.391422 -5.2061 -15.6355 2.14748 -4.75975 4.37715 2.14746 -4.75975 123.644 -20.5654 -32.6528 60.4778 -64.6169 72.3945 -36.3602 18.3243 -76.7664 -16.9208 -15.775 82.9318 -47.9399 -52.0121 140.177 -18.7319 31.5974 18.6861 9.97815 8.98221 -83.3753 29.7093 -11.7687 -43.5359 -83.376 -14.7499 3.00847 18.5659 -19.1885 -21.9249 
-313.229 60.546 305.958 96.8389 37.5898 107.644 -172.958 7.37303 95.3971 -94.8127 -49.1558 8.13502 123.351 -35.5803 -29.3982 24.2403 0.779807 -2.46017 157.616 -33.2435 103.916 -132.943 -18.1611 -57.1077 58.0939 -22.6295 -52.9484 76.9996 -7.93617 -31.4092 1.11862 4.04864 -92.4035 18.7729 0.922661 -5.07258 7.09227 0.698799 -5.10815 -15.3783 2.403 -4.56268 4.63432 2.403 -4.56268 124.083 -20.7002 -31.8544 54.5738 -64.1756 69.37 -35.1268 22.6301 -79.8877 -8.40265 -7.57267 83.2871 -44.862 -57.8468 141.671 -15.728 33.641 24.9695 6.7855 4.99811 -86.1328 30.2836 -12.3163 -44.5407 -83.3819 -13.788 3.74638 17.3843 -18.2755 -25.1034 
-314.458 61.4534 307.754 94.3885 36.3549 106.2 -173.801 5.73987 89.4856 -88.8095 -54.0712 10.9279 118.446 -37.9226 -30.595 26.4605 0.549155 -2.54218 161.638 -26.0927 101.378 -149.396 -39.906 -65.7255 83.7683 -4.21292 -55.7725 98.7777 -14.4596 -4.77628 1.32551 3.88885 -92.2845 19.1054 1.38267 -4.93346 7.42566 1.16449 -4.98936 -15.0553 2.80018 -4.29183 4.95735 2.80018 -4.29183 124.652 -20.8391 -30.8054 44.2044 -63.0724 62.9738 -32.7121 26.5741 -84.585 -2.59335 -1.94912 83.3717 -39.4518 -64.0528 145.64 -14.7825 35.3691 32.5255 3.76645 1.53978 -88.6158 30.8822 -13.0787 -46.108 -83.3999 -12.4365 4.69819 16.0894 -16.9728 -29.3433 
-317.065 60.9636 311.058 91.4655 34.8297 104.124 -174.846 5.85027 81.9112 -84.9718 -59.5919 14.692 113.706 -41.099 -31.4104 29.0739 0.341017 -3.21505 165.258 -22.9475 94.3277 -143.005 -48.5184 -61.6717 80.2381 -3.52721 -51.4185 103.763 -14.7965 -3.23735 1.60668 3.72032 -92.1501 19.4594 1.99549 -4.79925 7.78082 1.7826 -4.88218 -14.7141 3.34457 -3.97961 5.29856 3.34457 -3.97962 125.316 -20.9454 -29.5463 28.3431 -60.1949 52.2499 -27.7805 28.7685 -91.7915 0.395669 0.969582 83.9118 -33.9227 -68.3173 150.184 -20.825 34.3312 42.5453 4.16262 -0.762364 -90.1708 31.2521 -14.0535 -48.4985 -83.4771 -10.7357 5.78639 15.045 -15.3544 -34.3581 
-320.464 59.6447 315.33 88.2929 33.2297 101.43 -175.598 7.39235 73.4736 -81.9905 -64.9182 19.4468 108.418 -44.7497 -32.291 32.2196 0.112797 -4.71921 167.322 -22.2144 87.7787 -139.883 -54.1051 -60.4726 77.9817 -1.89188 -50.6059 109.524 -15.861 -2.63242 1.94325 3.57374 -92.023 19.7726 2.71364 -4.70577 8.09552 2.50418 -4.82035 -14.4166 4.00158 -3.67436 5.59601 4.0016 -3.67437 126.06 -21.0489 -28.1415 8.37445 -53.3655 38.7802 -19.2558 26.9701 -101.746 0.829153 1.55585 85.4521 -32.2587 -70.6894 150.959 -34.0759 27.411 56.0387 9.426 -2.28534 -93.0446 31.2087 -15.2232 -51.8988 -83.7069 -8.78053 6.92145 14.6581 -13.6051 -39.668 
-324.46 57.7868 320.292 85.1377 31.8227 98.2522 -175.646 9.65814 64.9417 -79.7458 -69.2993 24.7866 102.039 -48.553 -33.5388 36.1564 -0.244532 -7.43618 168.184 -22.2899 81.1023 -138.816 -58.6067 -61.098 76.5301 -0.0633345 -51.1016 115.301 -17.1193 -2.25537 2.29959 3.47899 -91.9308 19.9837 3.45406 -4.68807 8.30832 3.24463 -4.83522 -14.2228 4.70249 -3.43439 5.78986 4.70247 -3.43439 126.891 -21.2509 -26.6699 -12.0188 -39.993 26.7104 -7.5777 18.0391 -112.198 -1.1911 -0.937883 88.0432 -33.9213 -72.3212 148.317 -47.9559 15.5768 68.832 16.0452 -4.62802 -96.3101 30.6874 -16.4871 -56.1727 -84.1962 -6.78961 8.03268 15.1898 -12.0522 -44.6959 
-328.965 55.6799 325.784 82.2318 30.8172 94.8122 -174.792 12.3021 56.7918 -79.4847 -72.192 29.3586 93.5691 -52.3612 -35.6028 41.2664 -0.991499 -12.0076 167.976 -23.056 74.4831 -139.48 -62.626 -63.5759 75.68 1.8618 -52.4215 120.739 -18.4554 -2.01524 2.63759 3.4535 -91.904 20.0561 4.12706 -4.78338 8.38228 3.91282 -4.96004 -14.1665 5.37294 -3.32229 5.84617 5.37296 -3.32229 127.818 -21.6502 -25.2117 -30.6352 -18.9213 19.2508 6.01246 0.34454 -117.848 -5.45202 -5.38442 90.8106 -36.807 -73.6363 144.484 -58.9809 3.16085 77.623 19.284 -6.52973 -99.012 29.4288 -17.6045 -61.1851 -85.0193 -5.11719 9.10064 16.5705 -11.0724 -49.0021 
-333.84 53.6922 331.592 79.7295 30.3051 91.3297 -173 15.4034 49.448 -83.5278 -73.1903 30.7016 81.0074 -55.9231 -39.4906 47.9602 -2.68602 -19.3667 166.825 -24.2739 68.1464 -142.098 -66.3599 -68.3475 75.2529 4.06539 -54.3194 125.665 -19.8352 -1.90418 2.92742 3.49824 -91.9658 19.9867 4.66263 -5.02025 8.31359 4.43748 -5.22024 -14.2478 5.95477 -3.38667 5.76488 5.95476 -3.38668 128.835 -22.3023 -23.8431 -48.6186 7.7962 17.5248 23.9575 -21.9891 -112.19 -11.3009 -12.318 93.0956 -40.0048 -74.7352 140.434 -67.4449 -6.67449 83.0914 16.9443 -6.69493 -100.954 26.927 -18.1796 -67.0531 -86.1901 -4.09194 10.1338 18.4812 -10.8911 -52.396 
-338.854 52.1053 337.42 77.7061 30.2826 87.9687 -170.561 19.2801 43.4349 -92.9783 -71.7062 27.0414 61.6009 -58.3975 -46.6287 56.2977 -6.36799 -30.4774 164.901 -25.7518 62.2885 -147.279 -69.7589 -76.2426 75.1486 6.762 -56.6117 129.999 -21.2441 -1.92102 3.14993 3.60134 -92.1256 19.7972 5.01847 -5.40739 8.12375 4.77599 -5.62257 -14.4417 6.41021 -3.64894 5.57098 6.41021 -3.64895 129.909 -23.2093 -22.6356 -69.7192 34.5648 23.3439 51.9416 -36.8637 -90.1757 -17.5352 -19.7655 93.8878 -43.3566 -75.6753 136.312 -74.1448 -14.6146 86.8611 8.74349 -4.54979 -102.325 22.6816 -17.5768 -73.7448 -87.6635 -3.87799 11.1249 20.5671 -11.5218 -54.8858 
-343.822 50.9062 343.051 76.167 30.6836 84.8304 -168.246 24.3317 39.499 -104.257 -67.5141 20.8435 35.0345 -58.1105 -56.9374 65.1526 -13.1993 -44.9263 162.4 -27.3381 56.9923 -156.038 -72.477 -88.1232 75.4416 9.80412 -59.2996 133.726 -22.667 -2.05736 3.29586 3.74407 -92.3753 19.5236 5.18054 -5.92746 7.84841 4.91514 -6.14908 -14.7102 6.7207 -4.09706 5.30241 6.72072 -4.09707 130.979 -24.3122 -21.6496 -100.774 54.3061 42.0184 80.3155 -34.8086 -63.7132 -22.8955 -26.0594 94.0783 -47.0145 -76.4902 131.928 -79.4789 -20.4396 89.2057 -4.49344 -0.2159 -102.479 16.6818 -15.0424 -80.3876 -89.3515 -4.44797 12.0352 22.5658 -12.8225 -56.5952 
-348.702 49.8906 348.449 75.0738 31.4164 81.9446 -167.125 29.7418 38.1593 -113.155 -60.5135 15.0946 9.48266 -55.6648 -64.7757 72.2518 -22.2141 -59.5243 159.64 -28.7666 52.3876 -168.799 -73.9432 -103.608 76.2774 12.6078 -62.5745 136.86 -24.0825 -2.29762 3.36473 3.90681 -92.6912 19.2037 5.1595 -6.53852 7.52539 4.86742 -6.75836 -15.0152 6.88375 -4.68793 4.99742 6.88376 -4.68794 131.965 -25.5003 -20.9228 -144.204 61.1232 75.0432 94.9767 -23.8524 -48.6078 -26.7872 -30.8163 94.5835 -51.1775 -77.1848 127.051 -83.3868 -24.7609 91.1251 -20.7554 5.29307 -100.186 9.90874 -10.5576 -85.1996 -91.146 -5.63847 12.8165 24.3343 -14.5803 -57.6926 
-353.339 49.0461 353.505 74.3726 32.3967 79.2916 -167.316 33.8038 38.77 -117.858 -53.3349 11.4775 -8.80318 -52.719 -68.3268 76.8666 -30.7523 -70.8641 156.926 -29.8408 48.5715 176.512 -73.8095 -120.165 77.6178 14.8457 -66.4694 139.434 -25.4638 -2.62295 0.669132 3.31769 -77.4074 21.3918 8.38533 24.0568 9.51134 9.3971 23.6951 -11.1008 1.10426 25.3885 8.91181 1.10426 25.3885 148.528 -43.4056 -10.1824 30.418 -21.3648 73.5113 34.7458 -17.5398 -116.255 -22.6384 -31.3042 105.534 -96.5266 -6.6795 47.2339 16.53 -22.8385 147.028 -43.4979 29.9771 -90.0589 3.70493 -5.38899 -86.8938 -40.3634 54.7103 -59.6091 7.05256 51.3465 -65.9045 
-357.413 48.5261 357.961 74.0055 33.5517 76.8291 -168.048 35.9692 40.244 -120.075 -46.8432 9.04022 -19.1955 -51.1994 -68.6898 79.9903 -37.4996 -77.9811 154.417 -30.5076 45.5162 163.206 -72.1967 -134.634 79.3021 16.6068 -70.823 141.485 -26.7792 -3.01338 0.839212 2.24459 -77.2881 20.8492 8.53151 24.1491 8.98982 9.55625 23.7822 -11.7866 1.14022 25.5027 8.22599 1.14022 25.5027 145.787 -39.6135 -10.9498 15.252 -20.3753 68.3611 47.0793 -24.2655 -108.55 -24.9904 -35.027 106.103 -98.4516 -10.5168 43.0087 16.2866 -22.421 146.666 -57.6937 27.1266 -84.4806 -1.21305 -1.15829 -86.5977 -42.5647 56.4112 -59.2529 5.80046 50.2739 -63.5267 
